<mxfile host="Electron" modified="2023-07-27T14:46:05.768Z" agent="Mozilla/5.0 (Windows NT 10.0; Win64; x64) AppleWebKit/537.36 (KHTML, like Gecko) draw.io/21.3.7 Chrome/112.0.5615.204 Electron/24.5.0 Safari/537.36" etag="wWFroORpc-k_dXkXjFmk" version="21.3.7" type="device">
  <diagram id="yY089J-aIF6e-MrQwjvt" name="Страница 1">
    <mxGraphModel dx="1419" dy="819" grid="1" gridSize="10" guides="1" tooltips="1" connect="1" arrows="1" fold="1" page="1" pageScale="1" pageWidth="1169" pageHeight="827" math="0" shadow="0">
      <root>
        <mxCell id="0" />
        <mxCell id="1" parent="0" />
        <mxCell id="3FGFGwQInpcxt64Ezk21-3" style="edgeStyle=orthogonalEdgeStyle;rounded=0;orthogonalLoop=1;jettySize=auto;html=1;entryX=0.5;entryY=1;entryDx=0;entryDy=0;startArrow=classicThin;startFill=1;endArrow=classicThin;endFill=1;exitX=0.5;exitY=1;exitDx=0;exitDy=0;" parent="1" source="ISTWP1qSsfGEcgpO0xII-3" target="ISTWP1qSsfGEcgpO0xII-4" edge="1">
          <mxGeometry relative="1" as="geometry">
            <Array as="points">
              <mxPoint x="393" y="595" />
              <mxPoint x="875" y="595" />
            </Array>
            <mxPoint x="390" y="590" as="sourcePoint" />
          </mxGeometry>
        </mxCell>
        <mxCell id="qbj8UxB_bABXDXe74kNN-6" style="edgeStyle=orthogonalEdgeStyle;rounded=0;orthogonalLoop=1;jettySize=auto;html=1;exitX=0.75;exitY=0;exitDx=0;exitDy=0;endArrow=classicThin;endFill=1;startArrow=classicThin;startFill=1;" edge="1" parent="1" source="ISTWP1qSsfGEcgpO0xII-3">
          <mxGeometry relative="1" as="geometry">
            <mxPoint x="449.9999999999999" y="420" as="targetPoint" />
          </mxGeometry>
        </mxCell>
        <mxCell id="qbj8UxB_bABXDXe74kNN-7" style="edgeStyle=orthogonalEdgeStyle;rounded=0;orthogonalLoop=1;jettySize=auto;html=1;exitX=0.25;exitY=0;exitDx=0;exitDy=0;endArrow=classicThin;endFill=1;startArrow=classicThin;startFill=1;" edge="1" parent="1" source="ISTWP1qSsfGEcgpO0xII-3">
          <mxGeometry relative="1" as="geometry">
            <mxPoint x="340" y="420" as="targetPoint" />
          </mxGeometry>
        </mxCell>
        <mxCell id="ISTWP1qSsfGEcgpO0xII-3" value="api gateway&lt;br&gt;&lt;i&gt;(spring)&lt;/i&gt;" style="html=1;strokeColor=#3333FF;" parent="1" vertex="1">
          <mxGeometry x="360" y="500" width="70" height="60" as="geometry" />
        </mxCell>
        <mxCell id="3FGFGwQInpcxt64Ezk21-5" style="edgeStyle=orthogonalEdgeStyle;rounded=0;orthogonalLoop=1;jettySize=auto;html=1;exitX=0.5;exitY=0;exitDx=0;exitDy=0;endArrow=classicThin;endFill=1;entryX=1;entryY=0.5;entryDx=0;entryDy=0;" parent="1" source="ISTWP1qSsfGEcgpO0xII-4" target="ISTWP1qSsfGEcgpO0xII-30" edge="1">
          <mxGeometry relative="1" as="geometry">
            <mxPoint x="875" y="320" as="targetPoint" />
          </mxGeometry>
        </mxCell>
        <mxCell id="ISTWP1qSsfGEcgpO0xII-4" value="chat service&lt;br&gt;&lt;i style=&quot;&quot;&gt;(spring)&lt;/i&gt;" style="html=1;strokeColor=#3333FF;" parent="1" vertex="1">
          <mxGeometry x="835" y="490" width="80" height="80" as="geometry" />
        </mxCell>
        <mxCell id="ISTWP1qSsfGEcgpO0xII-5" value="refresh tokens&lt;br&gt;&lt;i&gt;(redis)&lt;/i&gt;" style="shape=cylinder3;whiteSpace=wrap;html=1;boundedLbl=1;backgroundOutline=1;size=15;strokeColor=#00FFFF;" parent="1" vertex="1">
          <mxGeometry x="313.75" y="220" width="52.5" height="90" as="geometry" />
        </mxCell>
        <mxCell id="ISTWP1qSsfGEcgpO0xII-6" value="messages&lt;br&gt;&lt;i&gt;(cassandra)&lt;/i&gt;" style="shape=cylinder3;whiteSpace=wrap;html=1;boundedLbl=1;backgroundOutline=1;size=15;strokeColor=#00FFFF;" parent="1" vertex="1">
          <mxGeometry x="930" y="410" width="70" height="80" as="geometry" />
        </mxCell>
        <mxCell id="ISTWP1qSsfGEcgpO0xII-12" value="" style="endArrow=oval;startArrow=none;html=1;rounded=0;exitX=1;exitY=0.5;exitDx=0;exitDy=0;entryX=0.5;entryY=1;entryDx=0;entryDy=0;entryPerimeter=0;startFill=0;endFill=1;" parent="1" source="ISTWP1qSsfGEcgpO0xII-4" target="ISTWP1qSsfGEcgpO0xII-6" edge="1">
          <mxGeometry width="50" height="50" relative="1" as="geometry">
            <mxPoint x="985" y="705" as="sourcePoint" />
            <mxPoint x="995" y="520" as="targetPoint" />
            <Array as="points">
              <mxPoint x="965" y="530" />
            </Array>
          </mxGeometry>
        </mxCell>
        <mxCell id="ISTWP1qSsfGEcgpO0xII-13" value="sse service&lt;br&gt;&lt;i&gt;(spring)&lt;/i&gt;" style="whiteSpace=wrap;html=1;aspect=fixed;strokeColor=#3333FF;" parent="1" vertex="1">
          <mxGeometry x="665" y="490" width="80" height="80" as="geometry" />
        </mxCell>
        <mxCell id="ISTWP1qSsfGEcgpO0xII-19" value="messege queue&lt;br&gt;&lt;i&gt;(rabbitmq)&lt;/i&gt;" style="rounded=0;whiteSpace=wrap;html=1;strokeColor=#3333FF;" parent="1" vertex="1">
          <mxGeometry x="735" y="280" width="105" height="30" as="geometry" />
        </mxCell>
        <mxCell id="3FGFGwQInpcxt64Ezk21-7" style="edgeStyle=orthogonalEdgeStyle;rounded=0;orthogonalLoop=1;jettySize=auto;html=1;exitX=0;exitY=0.5;exitDx=0;exitDy=0;entryX=0.5;entryY=0;entryDx=0;entryDy=0;endArrow=classicThin;endFill=1;startArrow=none;startFill=0;" parent="1" source="ISTWP1qSsfGEcgpO0xII-30" target="ISTWP1qSsfGEcgpO0xII-13" edge="1">
          <mxGeometry relative="1" as="geometry">
            <mxPoint x="705" y="420" as="targetPoint" />
          </mxGeometry>
        </mxCell>
        <mxCell id="ISTWP1qSsfGEcgpO0xII-30" value="&lt;font style=&quot;font-size: 9px;&quot;&gt;queue (new message)&lt;/font&gt;" style="rounded=0;whiteSpace=wrap;html=1;strokeColor=#3333FF;" parent="1" vertex="1">
          <mxGeometry x="735" y="310" width="105" height="20" as="geometry" />
        </mxCell>
        <mxCell id="ISTWP1qSsfGEcgpO0xII-37" value="client" style="shape=umlActor;verticalLabelPosition=bottom;verticalAlign=top;html=1;outlineConnect=0;" parent="1" vertex="1">
          <mxGeometry x="125" y="499.99" width="30" height="60" as="geometry" />
        </mxCell>
        <mxCell id="ISTWP1qSsfGEcgpO0xII-40" value="" style="endArrow=classicThin;startArrow=classicThin;html=1;rounded=0;entryX=0;entryY=0.5;entryDx=0;entryDy=0;startFill=1;endFill=1;" parent="1" target="ISTWP1qSsfGEcgpO0xII-3" edge="1">
          <mxGeometry width="50" height="50" relative="1" as="geometry">
            <mxPoint x="160" y="530" as="sourcePoint" />
            <mxPoint x="705" y="470" as="targetPoint" />
          </mxGeometry>
        </mxCell>
        <mxCell id="kDBblpaenROU-72gEPN4-12" value="user data&lt;br&gt;&lt;i&gt;(postgres)&lt;/i&gt;" style="shape=cylinder3;whiteSpace=wrap;html=1;boundedLbl=1;backgroundOutline=1;size=15;strokeColor=#00FFFF;" parent="1" vertex="1">
          <mxGeometry x="415" y="219.38" width="70" height="90.62" as="geometry" />
        </mxCell>
        <mxCell id="kDBblpaenROU-72gEPN4-20" value="Other services&lt;br&gt;(in progres)" style="rounded=0;whiteSpace=wrap;html=1;strokeColor=#3333FF;" parent="1" vertex="1">
          <mxGeometry x="510" y="280" width="170" height="140" as="geometry" />
        </mxCell>
        <mxCell id="kDBblpaenROU-72gEPN4-41" style="edgeStyle=orthogonalEdgeStyle;rounded=0;orthogonalLoop=1;jettySize=auto;html=1;exitX=0;exitY=0.5;exitDx=0;exitDy=0;entryX=1;entryY=0.5;entryDx=0;entryDy=0;endArrow=classicThin;endFill=1;startArrow=classicThin;startFill=1;" parent="1" source="ISTWP1qSsfGEcgpO0xII-13" target="ISTWP1qSsfGEcgpO0xII-3" edge="1">
          <mxGeometry relative="1" as="geometry">
            <mxPoint x="635" y="544" as="targetPoint" />
            <mxPoint x="545" y="530" as="sourcePoint" />
          </mxGeometry>
        </mxCell>
        <mxCell id="kDBblpaenROU-72gEPN4-46" value="&lt;font style=&quot;font-size: 8px;&quot;&gt;http&lt;/font&gt;" style="text;html=1;strokeColor=none;fillColor=none;align=center;verticalAlign=middle;whiteSpace=wrap;rounded=0;" parent="1" vertex="1">
          <mxGeometry x="557.5" y="519.75" width="15" height="10" as="geometry" />
        </mxCell>
        <mxCell id="kDBblpaenROU-72gEPN4-50" value="&lt;font style=&quot;font-size: 8px;&quot;&gt;http&lt;/font&gt;" style="text;html=1;strokeColor=none;fillColor=none;align=center;verticalAlign=middle;whiteSpace=wrap;rounded=0;rotation=0;" parent="1" vertex="1">
          <mxGeometry x="530" y="445" width="15" height="10" as="geometry" />
        </mxCell>
        <mxCell id="kDBblpaenROU-72gEPN4-51" value="&lt;font style=&quot;font-size: 8px;&quot;&gt;http&lt;/font&gt;" style="text;html=1;strokeColor=none;fillColor=none;align=center;verticalAlign=middle;whiteSpace=wrap;rounded=0;" parent="1" vertex="1">
          <mxGeometry x="250" y="519.75" width="15" height="10" as="geometry" />
        </mxCell>
        <mxCell id="fZNa2OlM_59kd07LReQJ-6" value="" style="endArrow=classicThin;html=1;rounded=0;entryX=0.5;entryY=1;entryDx=0;entryDy=0;startArrow=none;startFill=0;endFill=1;" parent="1" target="kDBblpaenROU-72gEPN4-20" edge="1">
          <mxGeometry width="50" height="50" relative="1" as="geometry">
            <mxPoint x="482.5" y="530" as="sourcePoint" />
            <mxPoint x="543.1300000000001" y="460" as="targetPoint" />
            <Array as="points">
              <mxPoint x="482.5" y="460" />
              <mxPoint x="595" y="460" />
            </Array>
          </mxGeometry>
        </mxCell>
        <mxCell id="3FGFGwQInpcxt64Ezk21-9" value="&lt;font style=&quot;font-size: 8px;&quot;&gt;http&lt;/font&gt;" style="text;html=1;strokeColor=none;fillColor=none;align=center;verticalAlign=middle;whiteSpace=wrap;rounded=0;" parent="1" vertex="1">
          <mxGeometry x="485" y="600" width="15" height="10" as="geometry" />
        </mxCell>
        <mxCell id="3FGFGwQInpcxt64Ezk21-10" value="&lt;font style=&quot;font-size: 8px;&quot;&gt;http&lt;/font&gt;" style="text;html=1;strokeColor=none;fillColor=none;align=center;verticalAlign=middle;whiteSpace=wrap;rounded=0;" parent="1" vertex="1">
          <mxGeometry x="775" y="600" width="15" height="10" as="geometry" />
        </mxCell>
        <mxCell id="qbj8UxB_bABXDXe74kNN-8" style="edgeStyle=orthogonalEdgeStyle;rounded=0;orthogonalLoop=1;jettySize=auto;html=1;exitX=0.5;exitY=0;exitDx=0;exitDy=0;entryX=0.5;entryY=1;entryDx=0;entryDy=0;entryPerimeter=0;endArrow=oval;endFill=1;" edge="1" parent="1" source="FWDkpfIc_kf_TAcyv8ec-2" target="ISTWP1qSsfGEcgpO0xII-5">
          <mxGeometry relative="1" as="geometry" />
        </mxCell>
        <mxCell id="FWDkpfIc_kf_TAcyv8ec-2" value="auth service&lt;br&gt;&lt;i&gt;(spring)&lt;/i&gt;" style="html=1;strokeColor=#3333FF;" parent="1" vertex="1">
          <mxGeometry x="305" y="359" width="70" height="60" as="geometry" />
        </mxCell>
        <mxCell id="FWDkpfIc_kf_TAcyv8ec-7" value="&lt;font style=&quot;font-size: 8px;&quot;&gt;http&lt;/font&gt;" style="text;html=1;strokeColor=none;fillColor=none;align=center;verticalAlign=middle;whiteSpace=wrap;rounded=0;" parent="1" vertex="1">
          <mxGeometry x="348.5" y="445" width="15" height="10" as="geometry" />
        </mxCell>
        <mxCell id="qbj8UxB_bABXDXe74kNN-9" style="edgeStyle=orthogonalEdgeStyle;rounded=0;orthogonalLoop=1;jettySize=auto;html=1;exitX=0.5;exitY=0;exitDx=0;exitDy=0;entryX=0.5;entryY=1;entryDx=0;entryDy=0;entryPerimeter=0;endArrow=oval;endFill=1;" edge="1" parent="1" source="qbj8UxB_bABXDXe74kNN-1" target="kDBblpaenROU-72gEPN4-12">
          <mxGeometry relative="1" as="geometry" />
        </mxCell>
        <mxCell id="qbj8UxB_bABXDXe74kNN-1" value="user service&lt;br&gt;&lt;i&gt;(spring)&lt;/i&gt;" style="html=1;strokeColor=#3333FF;" vertex="1" parent="1">
          <mxGeometry x="415" y="360" width="70" height="60" as="geometry" />
        </mxCell>
        <mxCell id="qbj8UxB_bABXDXe74kNN-3" value="&lt;font style=&quot;font-size: 8px;&quot;&gt;http&lt;/font&gt;" style="text;html=1;strokeColor=none;fillColor=none;align=center;verticalAlign=middle;whiteSpace=wrap;rounded=0;" vertex="1" parent="1">
          <mxGeometry x="420" y="445" width="15" height="10" as="geometry" />
        </mxCell>
      </root>
    </mxGraphModel>
  </diagram>
</mxfile>
